<svg width="17" height="13" viewBox="0 0 17 13" fill="none" xmlns="http://www.w3.org/2000/svg">
<path d="M0.520071 0.54326C-0.167032 0.90357 -0.175412 1.80016 0.507502 2.15209C0.658329 2.2275 0.863622 2.23169 8.02793 2.23169C15.1084 2.23169 15.4017 2.2275 15.5609 2.15209C16.248 1.83367 16.2564 0.90357 15.5735 0.551639C15.4227 0.476225 15.2174 0.472036 8.03212 0.472036C1.38733 0.476225 0.633191 0.480415 0.520071 0.54326Z" fill="#AAAAAA"/>
<path d="M0.520071 5.90605C-0.167032 6.26636 -0.175412 7.16295 0.507502 7.51488C0.658329 7.59029 0.863622 7.59448 8.02793 7.59448C15.1084 7.59448 15.4017 7.59029 15.5609 7.51488C16.248 7.19647 16.2564 6.26636 15.5735 5.91443C15.4227 5.83902 15.2174 5.83483 8.03212 5.83483C1.38733 5.83902 0.633191 5.84321 0.520071 5.90605Z" fill="#AAAAAA"/>
<path d="M0.520071 11.2688C-0.167032 11.6292 -0.175412 12.5257 0.507502 12.8777C0.658329 12.9531 0.863622 12.9573 8.02793 12.9573C15.1084 12.9573 15.4017 12.9531 15.5609 12.8777C16.248 12.5593 16.2564 11.6292 15.5735 11.2772C15.4227 11.2018 15.2174 11.1976 8.03212 11.1976C1.38733 11.2018 0.633191 11.206 0.520071 11.2688Z" fill="#AAAAAA"/>
</svg>
